<svg version="1.1" id="Layer_1" xmlns="http://www.w3.org/2000/svg" xmlns:xlink="http://www.w3.org/1999/xlink" x="0px" y="0px"
	 width="100%" viewBox="0 0 1024 1024" enable-background="new 0 0 1024 1024" xml:space="preserve">
<path fill="#000000" opacity="1.000000" stroke="none" 
	d="
M268.496460,402.267334 
	C282.595490,410.214661 289.877411,422.289276 292.288513,437.643555 
	C293.083221,442.704437 294.338776,447.703583 293.372498,452.900665 
	C292.732727,456.341797 293.942535,458.974609 296.933472,460.981812 
	C300.572235,463.423706 301.970825,467.572449 303.769501,471.258331 
	C310.592590,485.240295 314.462250,499.844940 312.248810,515.594116 
	C310.648621,526.979553 304.399902,535.303162 294.824493,541.066223 
	C291.237305,543.225159 290.743591,545.345703 291.683136,549.119080 
	C297.633240,573.015564 283.151947,599.076294 259.743439,606.595764 
	C256.368774,607.679810 254.644775,609.506104 253.280197,612.697388 
	C244.347504,633.588623 218.602158,645.295044 197.154190,638.473572 
	C190.934799,636.495483 185.792862,632.984680 181.748123,627.904419 
	C179.478729,625.054016 177.380539,622.067322 174.933075,618.776123 
	C170.940491,622.515625 168.300140,627.128235 164.511322,630.799133 
	C145.765182,648.962219 112.194122,642.868713 100.103783,620.077271 
	C95.460068,611.323486 90.533638,605.562134 80.675140,602.127686 
	C65.089378,596.697815 57.527611,583.547485 54.687634,567.569946 
	C53.535667,561.089050 53.108425,554.682739 55.178391,548.365540 
	C56.109356,545.524414 54.593746,543.925293 52.854076,542.330322 
	C40.186207,530.715881 35.032944,515.889343 35.871559,499.222260 
	C36.635239,484.044495 40.138329,469.527740 52.461342,458.864441 
	C54.028587,457.508331 54.737328,456.014465 54.133690,453.607056 
	C48.275764,430.244659 64.036186,401.724915 91.909294,396.656830 
	C94.800949,396.131073 95.506630,393.914642 96.438469,391.858307 
	C101.857765,379.899139 110.859802,371.629852 122.714638,366.367523 
	C140.002045,358.693634 158.388260,363.523773 169.971024,378.590118 
	C171.154648,380.129700 172.003937,382.022552 174.124908,383.122040 
	C179.027008,376.075928 184.888641,370.175232 192.728378,366.285980 
	C208.833710,358.296326 231.043015,363.349182 241.795700,377.658783 
	C245.314484,382.341583 248.551239,387.174011 250.497284,392.734070 
	C251.523041,395.664795 253.195938,397.220795 256.441101,397.921082 
	C260.463348,398.789154 264.271515,400.649109 268.496460,402.267334 
M110.463272,532.000183 
	C113.451645,525.965332 118.742676,523.262695 125.001114,521.981628 
	C137.954803,519.330017 151.274841,532.424438 148.607620,545.088989 
	C146.836060,553.500793 141.870071,559.366638 133.880463,561.892639 
	C125.676712,564.486389 118.845337,561.112366 113.572334,554.681091 
	C110.900726,551.422668 107.763458,550.204895 103.567604,550.299255 
	C94.755966,550.497131 85.927475,550.457458 77.120720,550.123901 
	C73.256645,549.977600 71.372971,551.821228 70.780037,555.037720 
	C67.924095,570.530457 76.583031,590.792786 97.218224,590.741943 
	C109.758278,590.710999 110.300705,591.226807 113.503517,603.493103 
	C117.091209,617.233398 133.621460,626.913879 146.242249,622.336853 
	C156.720139,618.536926 161.560791,609.991089 163.590759,599.645203 
	C165.127625,591.812500 165.023331,583.861511 164.983826,575.876587 
	C164.738998,526.386475 164.732040,476.895020 164.677139,427.404022 
	C164.668640,419.743439 163.682220,412.172211 162.813156,404.590210 
	C161.902908,396.648773 158.252411,390.073303 152.493729,384.612671 
	C145.854660,378.317139 136.538223,376.881073 128.571381,381.226868 
	C121.828461,384.905029 116.520126,390.128662 113.307793,397.214478 
	C111.521301,401.155151 109.928619,405.185974 108.325798,409.206970 
	C106.881729,412.829651 104.132050,414.670624 100.414688,415.264557 
	C98.115768,415.631866 95.793488,415.865631 93.506226,416.291229 
	C80.743233,418.666199 67.201141,430.310394 69.405075,446.220093 
	C69.960457,450.229248 71.464104,453.888275 73.447136,457.414307 
	C75.530472,461.118713 75.980431,464.642700 71.438560,467.085419 
	C53.378197,476.798767 49.621666,502.361450 57.392799,519.563293 
	C60.349915,526.109009 64.855011,531.468994 72.673004,532.473999 
	C78.924316,533.277649 85.246857,534.682434 91.455322,534.337280 
	C97.584496,533.996460 104.123390,536.334412 110.463272,532.000183 
M292.599091,486.892517 
	C290.232635,481.220764 288.626831,474.750732 282.847412,471.624481 
	C274.748077,467.243347 273.655334,460.898193 275.221832,452.688690 
	C276.569305,445.627014 276.002533,438.358978 274.010864,431.438568 
	C270.791473,420.252380 261.377014,413.934601 248.711761,413.217560 
	C235.742310,412.483307 234.942184,412.640381 231.547241,399.876312 
	C231.504410,399.715271 231.459702,399.554688 231.411301,399.395264 
	C228.333359,389.258270 216.914658,380.424927 206.807953,380.361969 
	C197.242630,380.302399 188.647598,387.582886 185.193314,398.866760 
	C182.922623,406.284210 182.956406,413.998657 182.964813,421.632172 
	C183.023682,475.121033 183.101639,528.610474 183.455322,582.097839 
	C183.512177,590.695068 184.619843,599.354736 188.061356,607.452332 
	C195.580353,625.143982 211.706223,629.542542 226.928223,618.088806 
	C233.993164,612.772827 237.979095,605.342224 241.187256,597.382935 
	C242.498672,594.129333 244.046661,591.621582 248.280365,591.609436 
	C270.403931,591.545959 279.481567,570.489502 277.048676,554.171631 
	C276.382843,549.705688 274.155334,547.877136 269.725647,547.950195 
	C256.443420,548.169250 243.158279,548.206665 229.875565,548.403442 
	C228.419342,548.424988 226.962952,548.986450 225.522308,549.358215 
	C224.005112,549.749756 223.193817,550.895447 223.436249,552.338440 
	C224.443680,558.334656 223.308167,564.725586 229.676422,569.272156 
	C236.575562,574.197754 238.579422,585.762695 235.007401,592.798584 
	C230.558517,601.561646 222.551971,605.740784 213.107056,603.138428 
	C205.899490,601.152649 199.612015,597.328552 197.605804,589.158569 
	C195.666992,581.263000 196.359390,573.156006 203.474884,569.019897 
	C210.186386,565.118591 209.183640,560.429077 208.490204,554.936646 
	C208.366180,553.954163 207.936447,553.010559 207.810089,552.028076 
	C206.697067,543.372986 210.267471,537.441284 218.560287,534.767395 
	C224.962997,532.703003 231.667831,532.662476 238.324875,532.685425 
	C250.133316,532.726196 261.919250,532.786377 273.624115,530.687500 
	C289.875763,527.773315 295.818542,520.794617 295.949829,504.216095 
	C295.995422,498.453156 294.715759,493.006683 292.599091,486.892517 
M127.550957,536.858643 
	C124.083916,537.557800 122.927101,539.888855 123.417648,543.105957 
	C123.806213,545.654236 125.386314,547.393555 128.048508,547.523926 
	C130.605469,547.649109 132.000290,545.887390 132.534973,543.633057 
	C133.316757,540.336853 131.767700,538.210815 128.689682,537.078918 
	C128.533905,537.021606 128.373474,536.976990 127.550957,536.858643 
M211.753540,584.884155 
	C213.056122,587.295837 214.420959,589.661011 217.793427,588.920776 
	C219.990662,588.438416 221.264359,586.955505 221.539505,584.767822 
	C221.878677,582.070740 220.444885,580.073730 218.113113,579.272278 
	C213.780441,577.783325 212.189377,580.531189 211.753540,584.884155 
z"/>
<path fill="#000000" opacity="1.000000" stroke="none" 
	d="
M382.352966,514.299133 
	C382.349579,526.423584 382.226074,538.085388 382.414185,549.742249 
	C382.476044,553.575317 381.264404,555.281677 377.321899,555.082275 
	C373.666870,554.897461 369.980896,554.844360 366.334167,555.099365 
	C362.032623,555.400146 360.520233,553.829468 360.566376,549.398621 
	C360.769257,529.912109 360.656799,510.422180 360.657745,490.933502 
	C360.658661,471.777954 360.787048,452.620911 360.565674,433.467926 
	C360.512421,428.862579 361.979218,427.469116 366.529236,427.547577 
	C381.016602,427.797516 395.512085,427.530029 410.002045,427.687317 
	C425.880707,427.859650 441.099396,437.835938 446.048798,451.024567 
	C452.733734,468.837891 449.361023,487.184723 437.545990,498.217102 
	C434.086121,501.447815 429.615204,502.996796 425.413116,505.942474 
	C434.788635,521.921509 444.084320,537.764465 453.947083,554.573914 
	C444.725037,555.312134 436.676086,555.205139 428.629883,554.710999 
	C426.765198,554.596436 426.047424,552.837891 425.213379,551.374451 
	C417.962036,538.651489 410.583099,525.999573 403.491577,513.188416 
	C401.803833,510.139465 399.856842,508.785614 396.411987,509.052917 
	C393.265045,509.297119 390.081207,509.252594 386.923096,509.116638 
	C383.494568,508.968994 381.928436,510.373566 382.352966,514.299133 
M424.400574,477.665588 
	C428.633759,459.088470 423.030487,451.284088 407.023315,448.826965 
	C399.926910,447.737610 392.730774,448.437073 385.579071,448.362915 
	C382.416779,448.330109 382.324982,450.470215 382.330597,452.792694 
	C382.356049,463.284821 382.427368,473.778107 382.294525,484.268585 
	C382.253448,487.513916 383.450714,489.018799 386.664459,488.606171 
	C394.434540,487.608551 402.294312,488.212769 410.038116,487.430145 
	C415.940796,486.833649 421.290314,484.318909 424.400574,477.665588 
z"/>
<path fill="#000000" opacity="1.000000" stroke="none" 
	d="
M837.182312,464.324768 
	C841.539001,453.288300 845.809509,442.630096 849.876343,431.894745 
	C851.048035,428.801880 852.767761,427.415070 856.165771,427.584351 
	C860.986633,427.824585 865.843201,427.883514 870.656128,427.576050 
	C874.400085,427.336884 875.971985,429.146149 877.190918,432.295166 
	C892.323242,471.390198 907.533386,510.455109 922.707336,549.533997 
	C923.237061,550.898254 923.597717,552.328125 924.234009,554.354248 
	C916.478821,555.562805 909.081787,555.158813 901.710754,554.670654 
	C899.815063,554.545044 899.429871,552.418335 898.802429,550.915833 
	C895.917419,544.007324 892.982544,537.116638 890.279663,530.136597 
	C889.155334,527.233093 887.460999,526.026123 884.310913,526.050903 
	C870.146912,526.162476 855.980957,526.165405 841.817200,526.041138 
	C838.628296,526.013245 837.067078,527.271362 835.957703,530.193054 
	C833.241760,537.345886 830.207458,544.377869 827.291138,551.454285 
	C826.586304,553.164368 825.923157,554.909790 823.581421,554.916260 
	C816.614319,554.935547 809.635437,555.368896 801.471008,554.488464 
	C813.480164,524.146057 825.249329,494.409851 837.182312,464.324768 
M847.026733,505.002075 
	C858.157227,506.338196 869.243530,505.377289 881.361145,505.669525 
	C875.234558,490.140778 869.695129,476.100037 864.155640,462.059296 
	C863.659119,462.116302 863.162537,462.173309 862.666016,462.230316 
	C857.230469,476.244110 851.322205,490.071106 847.026733,505.002075 
z"/>
<path fill="#000000" opacity="1.000000" stroke="none" 
	d="
M566.027954,463.647461 
	C568.020447,463.648041 569.519348,463.647156 571.018188,463.650177 
	C578.751221,463.665619 578.751221,463.665985 579.542236,471.245972 
	C581.209290,471.643921 581.705017,470.030029 582.636536,469.311218 
	C603.833374,452.954987 635.039062,462.556854 645.006714,488.658386 
	C650.526245,503.112061 650.907410,517.708313 643.920227,531.737488 
	C631.893066,555.886169 605.009888,564.370789 582.340088,548.091064 
	C581.559326,547.530396 580.789856,546.954041 579.278137,545.843628 
	C579.278137,556.998474 579.328796,567.407227 579.264893,577.815369 
	C579.190552,589.929626 580.589355,588.265259 568.534729,588.339417 
	C556.703430,588.412231 556.717896,588.348145 556.718323,576.432861 
	C556.719482,541.792480 556.685425,507.152100 556.714844,472.511749 
	C556.723267,462.628174 555.792236,463.754395 566.027954,463.647461 
M590.931641,485.376556 
	C580.219055,491.466766 576.389893,506.353668 579.732239,517.879395 
	C582.870361,528.700867 596.495178,537.607544 605.905884,536.120056 
	C621.680969,533.626587 632.508240,514.154419 624.284546,496.513062 
	C618.115173,483.278656 604.546082,478.336304 590.931641,485.376556 
z"/>
<path fill="#000000" opacity="1.000000" stroke="none" 
	d="
M769.093262,449.001831 
	C769.224243,441.732422 768.611572,434.924805 769.753601,427.985229 
	C776.676941,427.985229 783.238220,427.985229 790.179565,427.985229 
	C790.179565,470.211090 790.179565,512.096680 790.179565,554.609009 
	C783.999146,555.366638 777.725220,555.035156 771.468140,554.830872 
	C769.688843,554.772766 768.968323,553.513916 768.868408,551.767517 
	C768.786804,550.341797 769.326111,548.780334 768.042053,547.335571 
	C764.635315,549.283386 761.383972,551.617004 757.785706,553.120239 
	C738.879395,561.018738 718.853333,554.594238 707.144348,537.089661 
	C693.897461,517.285889 696.720581,488.691650 713.530396,472.408417 
	C727.061707,459.300934 748.472168,457.366577 764.075378,467.835541 
	C765.421448,468.738678 766.794495,469.601746 769.095398,471.092987 
	C769.095398,463.340210 769.095398,456.420715 769.093262,449.001831 
M760.070190,530.582764 
	C768.421204,522.483032 771.143494,512.736633 768.415039,501.490784 
	C766.122009,492.039764 760.517639,485.443939 751.069397,482.613373 
	C742.031860,479.905884 734.171143,482.662079 727.909241,489.205902 
	C719.095825,498.416382 718.059814,516.612915 727.605774,527.701294 
	C736.233337,537.723022 749.033813,539.157715 760.070190,530.582764 
z"/>
<path fill="#000000" opacity="1.000000" stroke="none" 
	d="
M468.408142,505.325958 
	C478.350311,497.993164 489.407227,496.953888 500.905182,497.472504 
	C506.533752,497.726379 512.139038,497.934082 517.481873,499.688385 
	C520.558472,491.066864 515.083679,482.783020 505.760834,481.373718 
	C497.342346,480.101196 489.109558,480.692932 481.539185,484.911469 
	C478.233246,486.753662 476.270630,486.457489 474.331146,483.007477 
	C472.308380,479.409424 469.622559,476.184113 466.960449,472.419464 
	C470.013763,468.762787 474.011353,466.441833 478.350677,464.968597 
	C490.905853,460.706024 503.748810,459.809021 516.591797,463.402435 
	C531.472839,467.566071 541.207947,480.499115 541.300598,495.908691 
	C541.407654,513.722534 541.183655,531.539185 541.397766,549.351013 
	C541.451416,553.820312 539.864563,555.331482 535.614014,555.031494 
	C532.467407,554.809448 529.276184,554.825928 526.130859,555.070557 
	C521.335205,555.443359 517.601562,554.849304 518.840027,547.940796 
	C514.433350,550.541565 510.680481,552.937439 506.422852,554.213013 
	C492.079987,558.509949 478.546295,557.252502 467.342529,546.645935 
	C456.491608,536.373474 453.154266,517.761719 468.408142,505.325958 
M496.833374,514.376221 
	C493.618164,514.307556 490.621033,515.264404 487.609314,516.243286 
	C483.099487,517.709106 480.856384,521.031494 480.441193,525.468872 
	C480.011017,530.066772 482.350433,533.494568 486.279724,535.664185 
	C497.749451,541.997620 514.450134,534.367859 517.877991,521.737122 
	C519.115662,517.176697 517.159668,516.153687 513.627502,515.399109 
	C508.378723,514.277771 503.070679,514.310486 496.833374,514.376221 
z"/>
<path fill="#000000" opacity="1.000000" stroke="none" 
	d="
M960.105286,457.000000 
	C960.145752,488.296234 960.113281,519.092957 960.313965,549.888184 
	C960.340149,553.916870 958.993774,555.260498 955.172302,555.076294 
	C951.185913,554.884155 947.170898,554.812317 943.192078,555.062927 
	C938.729858,555.344055 937.552673,553.409546 937.575623,549.166321 
	C937.725037,521.533386 937.651245,493.899261 937.651672,466.265533 
	C937.651794,455.112152 937.773438,443.956879 937.591370,432.806488 
	C937.528992,428.986755 938.665466,427.329285 942.685974,427.588135 
	C946.996338,427.865631 951.343262,427.782959 955.664734,427.614227 
	C958.925720,427.486908 960.129517,428.893555 960.102234,432.029663 
	C960.031372,440.185822 960.094910,448.343140 960.105286,457.000000 
z"/>
<path fill="#000000" opacity="1.000000" stroke="none" 
	d="
M662.668091,484.000244 
	C662.678406,478.175262 662.753479,472.849213 662.672729,467.525482 
	C662.631287,464.792236 663.743286,463.598480 666.508179,463.652435 
	C670.999268,463.740143 675.506897,463.869598 679.982910,463.588928 
	C684.270508,463.320068 685.348328,465.247284 685.327576,469.185730 
	C685.211243,491.317841 685.279602,513.450928 685.281433,535.583679 
	C685.281860,540.575989 685.136169,545.572876 685.308350,550.559021 
	C685.421997,553.853516 683.972717,555.040100 680.871887,554.982666 
	C676.879761,554.908569 672.867493,554.760864 668.895569,555.062195 
	C664.211853,555.417542 662.512085,553.816772 662.566223,548.900391 
	C662.802856,527.435852 662.668152,505.967255 662.668091,484.000244 
z"/>
<path fill="#000000" opacity="1.000000" stroke="none" 
	d="
M660.709473,437.316223 
	C662.041077,431.063629 665.571289,427.515656 671.545898,426.722412 
	C677.469910,425.935852 682.606995,427.537659 685.691040,432.944916 
	C688.267151,437.461639 688.425049,442.368591 684.988770,446.529816 
	C681.485779,450.771637 676.778015,452.649750 671.166992,451.405212 
	C665.564941,450.162689 661.646240,446.349915 660.786621,441.228638 
	C660.595703,440.091156 660.711609,438.902191 660.709473,437.316223 
z"/>
<path fill="#000000" opacity="1.000000" stroke="none" 
	d="
M114.188232,455.650330 
	C110.612862,449.584778 108.935066,443.464813 109.643707,436.734589 
	C109.951286,433.813446 110.894585,431.223999 112.749367,428.996307 
	C118.720329,421.824829 133.401657,420.041168 140.662476,425.959534 
	C147.221313,431.305664 152.308105,442.799072 144.353409,453.164703 
	C144.150803,453.428680 144.013824,453.783173 143.753738,453.957062 
	C134.727676,459.991028 135.026443,469.567627 134.352753,478.751434 
	C133.638641,488.486115 131.921646,490.412964 122.207428,491.838959 
	C116.455383,492.683319 110.559174,491.992737 104.856049,493.368652 
	C102.500496,493.936920 100.110352,494.090973 99.271736,497.354034 
	C97.666656,503.599335 92.351234,506.739929 85.504517,506.074738 
	C77.908340,505.336761 73.405807,500.974731 72.672585,493.922455 
	C72.059608,488.026764 74.820206,484.073334 79.530533,481.092194 
	C84.011841,478.255981 88.588867,476.680511 93.357979,480.397247 
	C95.036140,481.705078 96.617996,481.480530 98.491310,480.925018 
	C104.701454,479.083466 110.933342,477.297852 117.216148,475.727997 
	C119.433212,475.174072 119.512085,473.821198 119.673935,472.074371 
	C120.244255,465.919067 118.246872,460.647980 114.188232,455.650330 
M132.372040,444.956665 
	C134.335953,442.572144 133.833572,440.230042 131.817169,438.341003 
	C130.044861,436.680664 127.841782,436.003784 125.479774,437.525604 
	C123.335106,438.907379 122.981392,440.970520 123.440712,443.189331 
	C124.158852,446.658295 127.164795,447.432922 132.372040,444.956665 
z"/>
<path fill="#000000" opacity="1.000000" stroke="none" 
	d="
M273.051727,491.010193 
	C279.564148,499.699585 275.340118,512.224121 265.349884,514.912537 
	C262.494415,515.680969 259.479187,515.893127 257.405426,513.539307 
	C252.355347,507.807220 245.474991,506.505524 238.573135,505.613953 
	C229.753433,504.474701 222.351440,499.825867 214.372437,496.622742 
	C211.166412,495.335693 210.679169,492.167786 210.671768,489.044159 
	C210.655228,482.054108 210.491531,475.058472 210.721481,468.076111 
	C210.843018,464.385284 209.763260,461.592255 206.733368,459.535065 
	C206.459061,459.348785 206.211212,459.122314 205.958023,458.906372 
	C196.706207,451.014862 194.911133,445.078705 199.172256,436.470398 
	C204.242310,426.227844 213.626495,421.652954 224.237106,423.682709 
	C230.834717,424.944794 241.648605,440.064087 237.462524,447.639435 
	C235.369812,451.426514 233.850739,455.535370 230.535461,458.465973 
	C225.471710,462.942108 224.435867,468.428497 225.857864,474.759552 
	C228.807053,487.889984 228.801758,487.742188 241.899414,490.592896 
	C247.269760,491.761749 252.187592,492.806488 255.867325,487.292480 
	C256.727631,486.003265 258.319946,485.346313 259.867920,485.845551 
	C264.247681,487.258057 269.108124,487.440765 273.051727,491.010193 
M215.441986,447.131744 
	C218.642181,448.262482 221.437012,447.994049 222.521225,444.288361 
	C223.212723,441.924957 222.475418,439.799896 220.151001,438.377869 
	C217.956284,437.035187 215.911133,437.312775 214.402145,439.127594 
	C212.331314,441.618134 212.665527,444.267792 215.441986,447.131744 
z"/>
</svg>